


Note : I'm Far Better Than Any Fake Terrorist Group, This Is Original Ripped Version ! Watch Always Original Print From Real And Trusted Sources, Enjoy !



Screens :



 
http://picturestack.com/576/942/RSFUroChithi2AYe.jpg
 
http://i.imgur.com/C2FD1.jpg




Extra Screen Shots :



 
http://www.shotpix.com/images/91401625821193649080.jpg
 
http://www.shotpix.com/images/89035457330377115912.jpg
 
http://www.shotpix.com/images/33684563757601552379.jpg




Media Info :




Format                           : AVI
Format/Info                      : Audio Video Interleave
File size                        : 700 MiB
Duration                         : 2h 5mn
Overall bit rate                 : 780 Kbps


Video
ID                               : 0
Format                           : MPEG-4 Visual
Format settings, GMC             : No warppoints
Format settings, Matrix          : Custom
Codec ID                         : XVID
Codec ID/Hint                    : XviD
Duration                         : 2h 5mn
Bit rate                         : 654 Kbps
Width                            : 672 pixels
Height                           : 288 pixels
Display aspect ratio             : 2.35:1
Frame rate                       : 25.000 fps
Color space                      : YUV
Chroma subsampling               : 4:2:0
Bit depth                        : 8 bits
Scan type                        : Progressive
Compression mode                 : Lossy
Bits/(Pixel*Frame)               : 0.135
Stream size                      : 587 MiB (84%)


Audio
ID                               : 1
Format                           : MPEG Audio
Format version                   : Version 1
Format profile                   : Layer 3
Mode                             : Joint stereo
Mode extension                   : MS Stereo
Codec ID                         : 55
Codec ID/Hint                    : MP3
Duration                         : 2h 5mn
Bit rate mode                    : Variable
Bit rate                         : 114 Kbps
Nominal bit rate                 : 128 Kbps
Channel(s)                       : 2 channels
Sampling rate                    : 48.0 KHz
Compression mode                 : Lossy
Stream size                      : 102 MiB (15%)
Alignment                        : Aligned on interleaves



